<?xml version="1.0" encoding="UTF-8" standalone="no"?>
<!-- Created with Inkscape (http://www.inkscape.org/) -->

<svg
   version="1.1"
   id="svg1"
   width="4000"
   height="4000"
   viewBox="0 0 4000 4000"
   sodipodi:docname="Logo.ai.pdf"
   xmlns:inkscape="http://www.inkscape.org/namespaces/inkscape"
   xmlns:sodipodi="http://sodipodi.sourceforge.net/DTD/sodipodi-0.dtd"
   xmlns="http://www.w3.org/2000/svg"
   xmlns:svg="http://www.w3.org/2000/svg">
  <defs
     id="defs1">
    <linearGradient
       x1="0"
       y1="0"
       x2="1"
       y2="0"
       gradientUnits="userSpaceOnUse"
       gradientTransform="matrix(688.57819,1491.5414,-1491.5414,688.57819,1246.3503,706.51437)"
       spreadMethod="pad"
       id="linearGradient6">
      <stop
         style="stop-opacity:1;stop-color:#b47a1a"
         offset="0"
         id="stop1" />
      <stop
         style="stop-opacity:1;stop-color:#b47a1a"
         offset="0.110402"
         id="stop2" />
      <stop
         style="stop-opacity:1;stop-color:#ffe55a"
         offset="0.333333"
         id="stop3" />
      <stop
         style="stop-opacity:1;stop-color:#ffec88"
         offset="0.516129"
         id="stop4" />
      <stop
         style="stop-opacity:1;stop-color:#ffe55a"
         offset="0.66129"
         id="stop5" />
      <stop
         style="stop-opacity:1;stop-color:#b47a1a"
         offset="1"
         id="stop6" />
    </linearGradient>
    <linearGradient
       x1="0"
       y1="0"
       x2="1"
       y2="0"
       gradientUnits="userSpaceOnUse"
       gradientTransform="matrix(682.28151,1477.9021,-1477.9021,682.28151,1072.0111,815.20031)"
       spreadMethod="pad"
       id="linearGradient12">
      <stop
         style="stop-opacity:1;stop-color:#b47a1a"
         offset="0"
         id="stop7" />
      <stop
         style="stop-opacity:1;stop-color:#b47a1a"
         offset="0.110402"
         id="stop8" />
      <stop
         style="stop-opacity:1;stop-color:#ffe55a"
         offset="0.333333"
         id="stop9" />
      <stop
         style="stop-opacity:1;stop-color:#ffec88"
         offset="0.516129"
         id="stop10" />
      <stop
         style="stop-opacity:1;stop-color:#ffe55a"
         offset="0.66129"
         id="stop11" />
      <stop
         style="stop-opacity:1;stop-color:#b47a1a"
         offset="1"
         id="stop12" />
    </linearGradient>
    <linearGradient
       x1="0"
       y1="0"
       x2="1"
       y2="0"
       gradientUnits="userSpaceOnUse"
       gradientTransform="matrix(569.4501,0,0,569.4501,1214.3824,1484.4912)"
       spreadMethod="pad"
       id="linearGradient18">
      <stop
         style="stop-opacity:1;stop-color:#b47a1a"
         offset="0"
         id="stop13" />
      <stop
         style="stop-opacity:1;stop-color:#b47a1a"
         offset="0.110402"
         id="stop14" />
      <stop
         style="stop-opacity:1;stop-color:#ffe55a"
         offset="0.333333"
         id="stop15" />
      <stop
         style="stop-opacity:1;stop-color:#ffec88"
         offset="0.516129"
         id="stop16" />
      <stop
         style="stop-opacity:1;stop-color:#ffe55a"
         offset="0.66129"
         id="stop17" />
      <stop
         style="stop-opacity:1;stop-color:#b47a1a"
         offset="1"
         id="stop18" />
    </linearGradient>
    <linearGradient
       x1="0"
       y1="0"
       x2="1"
       y2="0"
       gradientUnits="userSpaceOnUse"
       gradientTransform="matrix(78.661806,0,0,78.661806,1439.0511,1561.5062)"
       spreadMethod="pad"
       id="linearGradient24">
      <stop
         style="stop-opacity:1;stop-color:#b47a1a"
         offset="0"
         id="stop19" />
      <stop
         style="stop-opacity:1;stop-color:#b47a1a"
         offset="0.110402"
         id="stop20" />
      <stop
         style="stop-opacity:1;stop-color:#ffe55a"
         offset="0.333333"
         id="stop21" />
      <stop
         style="stop-opacity:1;stop-color:#ffec88"
         offset="0.516129"
         id="stop22" />
      <stop
         style="stop-opacity:1;stop-color:#ffe55a"
         offset="0.66129"
         id="stop23" />
      <stop
         style="stop-opacity:1;stop-color:#b47a1a"
         offset="1"
         id="stop24" />
    </linearGradient>
    <clipPath
       clipPathUnits="userSpaceOnUse"
       id="clipPath25">
      <path
         d="M 0,0 H 3000 V 3000 H 0 Z"
         id="path25" />
    </clipPath>
    <clipPath
       clipPathUnits="userSpaceOnUse"
       id="clipPath26">
      <path
         d="M 0,0 H 3000 V 3000 H 0 Z"
         transform="scale(1.3333333)"
         id="path26" />
    </clipPath>
    <clipPath
       clipPathUnits="userSpaceOnUse"
       id="clipPath27">
      <path
         d="M 0,0 H 3000 V 3000 H 0 Z"
         transform="scale(1.3333333)"
         id="path27" />
    </clipPath>
    <clipPath
       clipPathUnits="userSpaceOnUse"
       id="clipPath30">
      <path
         d="M 2233.316,-490.711 3490.754,2233.047 766.996,3490.48 -490.441,766.727 Z"
         transform="scale(1.3333333)"
         id="path30" />
    </clipPath>
    <clipPath
       clipPathUnits="userSpaceOnUse"
       id="clipPath31">
      <path
         d="M 0,0 H 3000 V 3000 H 0 Z"
         id="path31" />
    </clipPath>
    <clipPath
       clipPathUnits="userSpaceOnUse"
       id="clipPath32">
      <path
         d="M 0,0 H 3000 V 3000 H 0 Z"
         transform="scale(1.3333333)"
         id="path32" />
    </clipPath>
    <clipPath
       clipPathUnits="userSpaceOnUse"
       id="clipPath33">
      <path
         d="M 0,0 H 3000 V 3000 H 0 Z"
         transform="scale(1.3333333)"
         id="path33" />
    </clipPath>
    <clipPath
       clipPathUnits="userSpaceOnUse"
       id="clipPath36">
      <path
         d="M 2233.316,-490.711 3490.754,2233.043 766.996,3490.48 -490.441,766.727 Z"
         transform="scale(1.3333333)"
         id="path36" />
    </clipPath>
    <clipPath
       clipPathUnits="userSpaceOnUse"
       id="clipPath37">
      <path
         d="M 0,0 H 3000 V 3000 H 0 Z"
         id="path37" />
    </clipPath>
    <clipPath
       clipPathUnits="userSpaceOnUse"
       id="clipPath38">
      <path
         d="M 0,0 H 3000 V 3000 H 0 Z"
         transform="scale(1.3333333)"
         id="path38" />
    </clipPath>
    <clipPath
       clipPathUnits="userSpaceOnUse"
       id="clipPath39">
      <path
         d="M 0,0 H 3000 V 3000 H 0 Z"
         transform="scale(1.3333333)"
         id="path39" />
    </clipPath>
    <clipPath
       clipPathUnits="userSpaceOnUse"
       id="clipPath42">
      <path
         d="M 2233.316,-490.711 3490.754,2233.043 766.996,3490.48 -490.441,766.727 Z"
         transform="scale(1.3333333)"
         id="path42" />
    </clipPath>
    <clipPath
       clipPathUnits="userSpaceOnUse"
       id="clipPath43">
      <path
         d="M 0,0 H 3000 V 3000 H 0 Z"
         id="path43" />
    </clipPath>
    <clipPath
       clipPathUnits="userSpaceOnUse"
       id="clipPath44">
      <path
         d="M 0,0 H 3000 V 3000 H 0 Z"
         transform="scale(1.3333333)"
         id="path44" />
    </clipPath>
    <clipPath
       clipPathUnits="userSpaceOnUse"
       id="clipPath45">
      <path
         d="M 0,0 H 3000 V 3000 H 0 Z"
         transform="scale(1.3333333)"
         id="path45" />
    </clipPath>
    <clipPath
       clipPathUnits="userSpaceOnUse"
       id="clipPath48">
      <path
         d="M 2233.316,-490.711 3490.754,2233.043 766.996,3490.48 -490.441,766.727 Z"
         transform="scale(1.3333333)"
         id="path48" />
    </clipPath>
    <clipPath
       clipPathUnits="userSpaceOnUse"
       id="clipPath49">
      <path
         d="M 0,0 H 3000 V 3000 H 0 Z"
         id="path49" />
    </clipPath>
    <clipPath
       clipPathUnits="userSpaceOnUse"
       id="clipPath50">
      <path
         d="M 0,0 H 3000 V 3000 H 0 Z"
         transform="scale(1.3333333)"
         id="path50" />
    </clipPath>
    <clipPath
       clipPathUnits="userSpaceOnUse"
       id="clipPath51">
      <path
         d="M 0,0 H 3000 V 3000 H 0 Z"
         transform="scale(1.3333333)"
         id="path51" />
    </clipPath>
    <clipPath
       clipPathUnits="userSpaceOnUse"
       id="clipPath54">
      <path
         d="M 2233.316,-490.711 3490.754,2233.043 766.996,3490.48 -490.441,766.727 Z"
         transform="scale(1.3333333)"
         id="path54" />
    </clipPath>
    <clipPath
       clipPathUnits="userSpaceOnUse"
       id="clipPath55">
      <path
         d="M 0,0 H 3000 V 3000 H 0 Z"
         id="path55" />
    </clipPath>
    <clipPath
       clipPathUnits="userSpaceOnUse"
       id="clipPath56">
      <path
         d="M 0,0 H 3000 V 3000 H 0 Z"
         transform="scale(1.3333333)"
         id="path56" />
    </clipPath>
    <clipPath
       clipPathUnits="userSpaceOnUse"
       id="clipPath57">
      <path
         d="M 0,0 H 3000 V 3000 H 0 Z"
         transform="scale(1.3333333)"
         id="path57" />
    </clipPath>
    <clipPath
       clipPathUnits="userSpaceOnUse"
       id="clipPath60">
      <path
         d="M 2233.316,-490.711 3490.754,2233.043 766.996,3490.48 -490.441,766.727 Z"
         transform="scale(1.3333333)"
         id="path60" />
    </clipPath>
    <clipPath
       clipPathUnits="userSpaceOnUse"
       id="clipPath61">
      <path
         d="M 0,0 H 3000 V 3000 H 0 Z"
         id="path61" />
    </clipPath>
    <clipPath
       clipPathUnits="userSpaceOnUse"
       id="clipPath62">
      <path
         d="M 0,0 H 3000 V 3000 H 0 Z"
         transform="scale(1.3333333)"
         id="path62" />
    </clipPath>
    <clipPath
       clipPathUnits="userSpaceOnUse"
       id="clipPath63">
      <path
         d="M 0,0 H 3000 V 3000 H 0 Z"
         transform="scale(1.3333333)"
         id="path63" />
    </clipPath>
    <clipPath
       clipPathUnits="userSpaceOnUse"
       id="clipPath66">
      <path
         d="M 2233.316,-490.711 3490.754,2233.043 766.996,3490.48 -490.441,766.727 Z"
         transform="scale(1.3333333)"
         id="path66" />
    </clipPath>
    <clipPath
       clipPathUnits="userSpaceOnUse"
       id="clipPath67">
      <path
         d="M 0,0 H 3000 V 3000 H 0 Z"
         id="path67" />
    </clipPath>
    <clipPath
       clipPathUnits="userSpaceOnUse"
       id="clipPath68">
      <path
         d="M 0,0 H 3000 V 3000 H 0 Z"
         transform="scale(1.3333333)"
         id="path68" />
    </clipPath>
    <clipPath
       clipPathUnits="userSpaceOnUse"
       id="clipPath69">
      <path
         d="M 0,0 H 3000 V 3000 H 0 Z"
         transform="scale(1.3333333)"
         id="path69" />
    </clipPath>
    <clipPath
       clipPathUnits="userSpaceOnUse"
       id="clipPath72">
      <path
         d="M 2233.316,-490.711 3490.754,2233.043 766.996,3490.48 -490.441,766.727 Z"
         transform="scale(1.3333333)"
         id="path72" />
    </clipPath>
    <clipPath
       clipPathUnits="userSpaceOnUse"
       id="clipPath73">
      <path
         d="M 0,0 H 3000 V 3000 H 0 Z"
         id="path73" />
    </clipPath>
    <clipPath
       clipPathUnits="userSpaceOnUse"
       id="clipPath74">
      <path
         d="M 0,0 H 3000 V 3000 H 0 Z"
         transform="scale(1.3333333)"
         id="path74" />
    </clipPath>
    <clipPath
       clipPathUnits="userSpaceOnUse"
       id="clipPath75">
      <path
         d="M 0,0 H 3000 V 3000 H 0 Z"
         transform="scale(1.3333333)"
         id="path75" />
    </clipPath>
    <clipPath
       clipPathUnits="userSpaceOnUse"
       id="clipPath78">
      <path
         d="M 2233.316,-490.711 3490.754,2233.047 766.996,3490.48 -490.441,766.727 Z"
         transform="scale(1.3333333)"
         id="path78" />
    </clipPath>
    <clipPath
       clipPathUnits="userSpaceOnUse"
       id="clipPath79">
      <path
         d="M 0,0 H 3000 V 3000 H 0 Z"
         id="path79" />
    </clipPath>
    <clipPath
       clipPathUnits="userSpaceOnUse"
       id="clipPath80">
      <path
         d="M 0,0 H 3000 V 3000 H 0 Z"
         transform="scale(1.3333333)"
         id="path80" />
    </clipPath>
    <clipPath
       clipPathUnits="userSpaceOnUse"
       id="clipPath81">
      <path
         d="M 0,0 H 3000 V 3000 H 0 Z"
         transform="scale(1.3333333)"
         id="path81" />
    </clipPath>
    <clipPath
       clipPathUnits="userSpaceOnUse"
       id="clipPath84">
      <path
         d="M 2233.316,-490.711 3490.754,2233.043 766.996,3490.48 -490.441,766.727 Z"
         transform="scale(1.3333333)"
         id="path84" />
    </clipPath>
    <clipPath
       clipPathUnits="userSpaceOnUse"
       id="clipPath85">
      <path
         d="M 0,0 H 3000 V 3000 H 0 Z"
         id="path85" />
    </clipPath>
    <clipPath
       clipPathUnits="userSpaceOnUse"
       id="clipPath86">
      <path
         d="M 0,0 H 3000 V 3000 H 0 Z"
         transform="scale(1.3333333)"
         id="path86" />
    </clipPath>
    <clipPath
       clipPathUnits="userSpaceOnUse"
       id="clipPath87">
      <path
         d="M 0,0 H 3000 V 3000 H 0 Z"
         transform="scale(1.3333333)"
         id="path87" />
    </clipPath>
    <clipPath
       clipPathUnits="userSpaceOnUse"
       id="clipPath90">
      <path
         d="M 2233.316,-490.711 3490.754,2233.047 766.996,3490.48 -490.441,766.727 Z"
         transform="scale(1.3333333)"
         id="path90" />
    </clipPath>
    <clipPath
       clipPathUnits="userSpaceOnUse"
       id="clipPath91">
      <path
         d="M 0,0 H 3000 V 3000 H 0 Z"
         id="path91" />
    </clipPath>
    <clipPath
       clipPathUnits="userSpaceOnUse"
       id="clipPath92">
      <path
         d="M 0,0 H 3000 V 3000 H 0 Z"
         transform="scale(1.3333333)"
         id="path92" />
    </clipPath>
    <clipPath
       clipPathUnits="userSpaceOnUse"
       id="clipPath93">
      <path
         d="M 0,0 H 3000 V 3000 H 0 Z"
         transform="scale(1.3333333)"
         id="path93" />
    </clipPath>
    <clipPath
       clipPathUnits="userSpaceOnUse"
       id="clipPath96">
      <path
         d="M 2233.316,-490.711 3490.754,2233.043 766.996,3490.48 -490.441,766.727 Z"
         transform="scale(1.3333333)"
         id="path96" />
    </clipPath>
    <clipPath
       clipPathUnits="userSpaceOnUse"
       id="clipPath97">
      <path
         d="M 0,0 H 3000 V 3000 H 0 Z"
         id="path97" />
    </clipPath>
    <clipPath
       clipPathUnits="userSpaceOnUse"
       id="clipPath98">
      <path
         d="M 0,0 H 3000 V 3000 H 0 Z"
         transform="scale(1.3333333)"
         id="path98" />
    </clipPath>
    <clipPath
       clipPathUnits="userSpaceOnUse"
       id="clipPath99">
      <path
         d="M 0,0 H 3000 V 3000 H 0 Z"
         transform="scale(1.3333333)"
         id="path99" />
    </clipPath>
    <clipPath
       clipPathUnits="userSpaceOnUse"
       id="clipPath102">
      <path
         d="M 2233.316,-490.711 3490.754,2233.043 766.996,3490.48 -490.441,766.727 Z"
         transform="scale(1.3333333)"
         id="path102" />
    </clipPath>
    <clipPath
       clipPathUnits="userSpaceOnUse"
       id="clipPath103">
      <path
         d="M 0,0 H 3000 V 3000 H 0 Z"
         id="path103" />
    </clipPath>
    <clipPath
       clipPathUnits="userSpaceOnUse"
       id="clipPath104">
      <path
         d="M 0,0 H 3000 V 3000 H 0 Z"
         transform="scale(1.3333333)"
         id="path104" />
    </clipPath>
    <clipPath
       clipPathUnits="userSpaceOnUse"
       id="clipPath105">
      <path
         d="M 0,0 H 3000 V 3000 H 0 Z"
         transform="scale(1.3333333)"
         id="path105" />
    </clipPath>
    <clipPath
       clipPathUnits="userSpaceOnUse"
       id="clipPath108">
      <path
         d="M 2233.316,-490.711 3490.754,2233.043 766.996,3490.48 -490.441,766.727 Z"
         transform="scale(1.3333333)"
         id="path108" />
    </clipPath>
    <linearGradient
       x1="0"
       y1="0"
       x2="1"
       y2="0"
       gradientUnits="userSpaceOnUse"
       gradientTransform="matrix(936.59719,0,0,936.59719,1031.7016,1507.0804)"
       spreadMethod="pad"
       id="linearGradient113">
      <stop
         style="stop-opacity:1;stop-color:#b47a1a"
         offset="0"
         id="stop108" />
      <stop
         style="stop-opacity:1;stop-color:#b47a1a"
         offset="0.110402"
         id="stop109" />
      <stop
         style="stop-opacity:1;stop-color:#ffe55a"
         offset="0.333333"
         id="stop110" />
      <stop
         style="stop-opacity:1;stop-color:#ffec88"
         offset="0.516129"
         id="stop111" />
      <stop
         style="stop-opacity:1;stop-color:#ffe55a"
         offset="0.66129"
         id="stop112" />
      <stop
         style="stop-opacity:1;stop-color:#b47a1a"
         offset="1"
         id="stop113" />
    </linearGradient>
  </defs>
  <sodipodi:namedview
     id="namedview1"
     pagecolor="#505050"
     bordercolor="#ffffff"
     borderopacity="1"
     inkscape:showpageshadow="0"
     inkscape:pageopacity="0"
     inkscape:pagecheckerboard="1"
     inkscape:deskcolor="#505050">
    <inkscape:page
       x="0"
       y="0"
       id="page1"
       width="4000"
       height="4000"
       margin="0"
       bleed="0" />
  </sodipodi:namedview>
  <g
     id="g1"
     inkscape:groupmode="layer"
     inkscape:label="">
    <path
       id="path6"
       d="M 1995.094,841.254 C 1970.848,823.328 1549.645,522.504 1157.539,750.68 956.281,867.793 805.344,1099.445 814.066,1368 c 8.211,252.711 155.977,481.812 383.879,595.121 -44.843,-30.648 -121.289,-91.949 -176.539,-194.914 -5.949,-11.086 -122.324,-236.336 -26.25,-468.117 103.192,-248.945 392.41,-362.953 632.215,-342.121 279.32,24.258 503.906,232.527 581.481,485.414 77.597,252.976 2.269,531.676 -193.625,717.601 42.734,-33.984 292.253,-239.238 317.925,-593.5 10.953,-151.16 -22.312,-281.789 -71.777,-388.945 -95.512,-206.91 -251.465,-326.328 -266.281,-337.285"
       transform="scale(1.3333333)"
       style="fill:url(#linearGradient6);stroke:none" />
    <path
       id="path12"
       d="m 1821.723,1054.383 c 180.738,138.297 270.515,358.273 226.679,563.586 -53.707,251.523 -282.582,362.242 -322.668,381.633 -210.148,101.66 -407.949,46.777 -464.461,30.144 -192.019,-56.519 -305.57,-183.226 -355.183,-249.254 -36.797,-48.965 -155.504,-220.351 -139.797,-464.094 16.883,-262.023 177.211,-423.195 215.066,-459.347 -40.035,32.574 -292.515,245.148 -308.179,608.433 -13.977,324.09 170.32,540.836 218.183,593.571 32.883,36.23 331.164,353.972 740.918,270.343 36.449,-7.441 393.832,-86.648 522.731,-420.015 95.472,-246.906 2.449,-469.891 -22.95,-525.481 -0.386,-0.84 -0.75,-1.648 -1.132,-2.484 -92.621,-200.598 -253.145,-296.742 -309.203,-327.039"
       transform="scale(1.3333333)"
       style="fill:url(#linearGradient12);stroke:none" />
    <path
       id="path18"
       d="m 1459.641,1138.875 c -7.071,3.211 -68.211,32.121 -76.11,91.523 -3.273,24.551 3.781,45.102 8.953,56.715 -8.289,3.207 -18.304,7.653 -29.164,13.86 -15.586,8.91 -27.07,18.132 -34.203,24.394 -14.379,12.613 -25.183,25.574 -33.148,36.863 -0.66,107.79 -1.324,215.579 -1.989,323.364 -26.535,28.355 -53.058,56.715 -79.597,85.07 32.148,1.547 79.847,8.066 131.66,32.004 26.422,12.199 48.023,26.215 65.016,39.141 63.011,-0.899 126.023,-1.782 189.035,-2.664 17.472,-18.786 47.828,-46.661 92.863,-67.649 35.594,-16.59 67.988,-23.137 90.875,-25.875 -40.902,-30.074 -81.809,-60.129 -122.711,-90.203 -0.223,-101.93 -0.441,-203.856 -0.664,-305.785 -23.07,-12.238 -49.035,-28.399 -75.625,-49.75 -13.328,-10.707 -25.227,-21.434 -35.812,-31.84 2.625,-6.938 8.222,-24.574 3.156,-46.098 -6.781,-28.734 -27.758,-43.855 -33.004,-47.425 -0.91,-3.508 0.348,-7.211 3.152,-9.29 2.926,-2.156 6.938,-1.324 8.457,-0.988 48.051,10.524 105.465,91.031 105.465,91.031 15.715,22.043 36.266,52.961 57.699,92.036 2.157,-11.602 4.313,-23.215 6.469,-34.813 17.91,4.805 35.824,9.609 53.738,14.418 0.989,-16.574 1.985,-33.164 2.973,-49.754 -17.586,-27.34 -51.27,-71.308 -107.941,-104.461 -25.364,-14.832 -77.844,-45.519 -133.821,-45.523 -18.48,0 -37.332,3.34 -55.722,11.699 m -25.848,94.754 c 13.266,-18.578 26.523,-37.152 39.789,-55.715 2.582,9.457 7.547,22.238 17.91,33.824 13.59,15.172 27.957,18.758 27.203,22.551 -0.418,2.094 -5.336,3.715 -20.265,3.715 -12.895,0 -33.254,-1.211 -64.637,-4.375 m 40.941,82.18 c 14.36,-0.137 28.071,-0.262 46.536,-3.196 23.089,-3.664 37.367,-9.133 38.363,-6.758 1.055,2.516 -13.516,12.102 -28.617,18.418 -22.789,9.536 -43.786,10.379 -56.219,10.051 -48.242,-1.265 -88.789,-23.304 -87.625,-27.14 0.558,-1.848 10.601,1.089 28.516,4.031 14.039,2.305 32.914,4.605 55.843,4.605 1.059,0 2.125,0 3.203,-0.011 m -115.789,49.652 c 1.028,-2.871 14.852,2.039 39.063,6.949 20.699,4.199 48.988,8.399 83.363,7.735 36.781,-0.711 63.215,-4.829 63.215,-4.829 32.383,-5.046 52.281,-12.218 53.519,-9.097 1.34,3.367 -20.113,15.996 -40.468,24.687 -12.032,5.141 -40.949,17.211 -75.606,18.426 -1.933,0.066 -3.867,0.102 -5.785,0.102 -65.086,0 -119.453,-37.973 -117.301,-43.973 m 200.688,322.621 c -56.711,-0.332 -113.426,-0.664 -170.137,-0.996 -5.68,-0.016 -24.629,-0.785 -41.289,-14.922 -10.711,-9.09 -15.707,-19.656 -17.91,-25.371 0.5,-77.109 0.996,-154.219 1.492,-231.328 10.649,-0.449 26.988,0.262 45.27,6.965 32.086,11.765 49.968,34.586 56.714,44.277 -6.925,4.438 -50.886,33.664 -60.195,91.535 -9.801,60.926 26.774,104.035 31.832,109.801 50.082,0.047 100.16,0.094 150.242,0.141 6.407,-9.364 37.27,-56.547 25.371,-118.399 -8.82,-45.859 -36.226,-74.199 -46.761,-84.074 6.347,-8.512 20.39,-24.965 44.273,-36.316 23.18,-11.012 44.153,-11.77 54.723,-11.442 l -2.488,225.856 c -2.891,6.582 -9.321,18.73 -22.383,28.851 -18,13.945 -37.524,15.465 -46.207,15.465 -1,0 -1.856,-0.02 -2.547,-0.043 M 1421.527,1525.77 c 4.207,-6.118 27.032,-39.36 61.828,-37.5 30.086,1.597 48.235,28.304 52.895,35.175 29.41,43.321 7.758,96.965 5.223,102.953 -42.371,0.082 -84.731,0.161 -127.102,0.25 -2.379,-5.988 -22.199,-58.101 7.156,-100.878 m 185.114,244.398 c -9.379,-7.57 -14.286,-16.289 -16.664,-21.395 -0.844,-3.949 -1.598,-9.636 -0.989,-16.418 0.559,-6.246 2.09,-11.328 3.481,-14.921 12.105,-8.289 24.215,-16.579 36.308,-24.875 1.883,-0.793 6.325,-2.368 11.95,-1.497 6.832,1.067 11.066,5.067 12.429,6.469 11.278,9.121 22.551,18.239 33.824,27.371 0.274,0.235 2.028,1.883 1.989,4.559 -0.024,2.57 -1.699,4.129 -1.989,4.391 -9.699,8.351 -20.625,17.027 -32.824,25.707 -10.676,7.582 -21.031,14.234 -30.847,20.054 -4.446,-1.636 -10.497,-4.48 -16.668,-9.445 m -280.821,-4.973 c -15.289,-9.273 -28.187,-18.914 -38.8,-27.863 3.597,-6.379 10.066,-15.965 20.886,-24.539 8.239,-6.531 19.707,-15.625 34.824,-15.586 17.68,0.027 40.985,12.535 45.114,36.477 3.523,20.468 -8.336,41.277 -28.524,49.086 -10.34,-4.637 -21.656,-10.407 -33.5,-17.575 m 75.289,39.461 c -0.586,-7.441 -0.91,-25.004 8.95,-43.773 8.066,-15.34 19.144,-24.293 25.211,-28.528 h 101.812 c 5.195,3.457 21.574,15.317 28.527,37.813 4.856,15.746 2.778,29.266 1.325,35.812 -55.286,-0.441 -110.555,-0.882 -165.825,-1.324"
       transform="scale(1.3333333)"
       style="fill:url(#linearGradient18);stroke:none" />
    <path
       id="path24"
       d="m 1493.094,1520.785 -14.668,55.477 -14.84,-55.477 h -24.535 v 81.442 h 15.344 v -64.157 l 16.019,64.157 h 15.852 l 16.187,-64.157 v 64.157 h 15.262 v -81.442 z"
       transform="scale(1.3333333)"
       style="fill:url(#linearGradient24);stroke:none" />
    <g
       id="g30"
       clip-path="url(#clipPath30)">
      <g
         clip-path="url(#clipPath27)"
         id="g29">
        <g
           clip-path="url(#clipPath26)"
           id="g28">
          <path
             d="m 1364.117,2205.621 -7.336,-47.691 -22.515,42.742 z m -19.699,-83.016 35.461,5.879 25.144,137.641 -32.386,-5.367 -3.969,-25.383 -48.488,-8.039 -11.953,22.746 -31.84,-5.277 z"
             style="fill:#000000;fill-opacity:1;fill-rule:nonzero;stroke:none"
             transform="scale(1.3333333)"
             clip-path="url(#clipPath25)"
             id="path28" />
        </g>
      </g>
    </g>
    <g
       id="g36"
       clip-path="url(#clipPath36)">
      <g
         clip-path="url(#clipPath33)"
         id="g35">
        <g
           clip-path="url(#clipPath32)"
           id="g34">
          <path
             d="m 1418.547,2167.09 12.832,0.215 0.598,-35.758 30.625,0.512 -0.598,35.757 14.484,0.243 -0.445,26.769 -14.488,-0.238 -1.176,70.598 -30.625,-0.512 1.18,-70.598 -12.836,-0.215 z"
             style="fill:#000000;fill-opacity:1;fill-rule:nonzero;stroke:none"
             transform="scale(1.3333333)"
             clip-path="url(#clipPath31)"
             id="path34" />
        </g>
      </g>
    </g>
    <g
       id="g42"
       clip-path="url(#clipPath42)">
      <g
         clip-path="url(#clipPath39)"
         id="g41">
        <g
           clip-path="url(#clipPath38)"
           id="g40">
          <path
             d="m 1479.289,2167.926 12.793,-1.047 -2.914,-35.641 30.527,-2.496 2.914,35.641 14.438,-1.18 2.183,26.688 -14.441,1.179 5.754,70.371 -30.523,2.497 -5.754,-70.372 -12.793,1.047 z"
             style="fill:#000000;fill-opacity:1;fill-rule:nonzero;stroke:none"
             transform="scale(1.3333333)"
             clip-path="url(#clipPath37)"
             id="path40" />
        </g>
      </g>
    </g>
    <g
       id="g48"
       clip-path="url(#clipPath48)">
      <g
         clip-path="url(#clipPath45)"
         id="g47">
        <g
           clip-path="url(#clipPath44)"
           id="g46">
          <path
             d="m 1607.223,2222.891 c 6.086,-1.368 10.57,-4.536 13.468,-9.504 2.895,-4.973 3.555,-10.977 1.977,-18.02 -1.527,-6.797 -4.672,-11.73 -9.43,-14.801 -4.761,-3.066 -10.179,-3.918 -16.265,-2.554 -6.325,1.418 -10.868,4.633 -13.629,9.633 -2.762,5.007 -3.379,10.91 -1.856,17.71 1.551,6.918 4.707,11.911 9.469,14.977 4.758,3.07 10.18,3.922 16.266,2.559 m -55.797,-10.797 c -1.821,-8.11 -2.27,-15.563 -1.348,-22.344 0.922,-6.785 2.848,-12.73 5.777,-17.836 2.926,-5.102 6.707,-9.332 11.344,-12.695 4.633,-3.352 9.754,-5.66 15.363,-6.922 6.559,-1.469 12.333,-1.57 17.313,-0.309 4.984,1.262 9.453,3.457 13.414,6.578 l -2.25,-10.019 29.527,-6.621 21.309,95.023 -29.527,6.621 -2.207,-9.843 c -2.606,4.593 -5.899,8.496 -9.875,11.707 -3.981,3.207 -9.012,5.496 -15.094,6.859 -5.492,1.23 -11.047,1.316 -16.672,0.262 -5.625,-1.055 -10.879,-3.262 -15.766,-6.614 -4.886,-3.351 -9.218,-7.863 -12.996,-13.531 -3.777,-5.668 -6.547,-12.441 -8.312,-20.316"
             style="fill:#000000;fill-opacity:1;fill-rule:nonzero;stroke:none"
             transform="scale(1.3333333)"
             clip-path="url(#clipPath43)"
             id="path46" />
        </g>
      </g>
    </g>
    <g
       id="g54"
       clip-path="url(#clipPath54)">
      <g
         clip-path="url(#clipPath51)"
         id="g53">
        <g
           clip-path="url(#clipPath50)"
           id="g52">
          <path
             d="m 1692.238,2225.953 -34.609,-91.023 25.883,-9.844 4.043,10.629 c 0.363,-5.238 1.996,-9.621 4.91,-13.149 2.906,-3.527 6.359,-6.05 10.363,-7.574 2.285,-0.867 4.234,-1.414 5.852,-1.637 1.617,-0.218 3.027,-0.296 4.226,-0.23 l 4.098,27.281 c -1.43,0.024 -2.926,0.133 -4.484,0.332 -1.563,0.203 -3.141,0.606 -4.739,1.215 -3.66,1.391 -6.211,4.223 -7.656,8.504 -1.449,4.277 -0.758,10.133 2.066,17.559 l 17.993,47.308 z"
             style="fill:#000000;fill-opacity:1;fill-rule:nonzero;stroke:none"
             transform="scale(1.3333333)"
             clip-path="url(#clipPath49)"
             id="path52" />
        </g>
      </g>
    </g>
    <g
       id="g60"
       clip-path="url(#clipPath60)">
      <g
         clip-path="url(#clipPath57)"
         id="g59">
        <g
           clip-path="url(#clipPath56)"
           id="g58">
          <path
             d="m 1083.91,1027.352 -53.648,-101.942 25.211,-18.262 55.531,43.903 c 1.129,1.015 2.344,2.062 3.648,3.144 1.305,1.082 2.629,2.184 3.965,3.305 -1.597,-3.289 -2.894,-6.336 -3.883,-9.152 l -23.379,-67.192 24.696,-17.89 79.887,82.937 -20.708,15 -42.816,-44.488 c -1.105,-1.16 -2.371,-2.5 -3.793,-4.016 -1.426,-1.519 -2.848,-3.07 -4.262,-4.664 0.817,2.031 1.641,3.981 2.477,5.856 0.84,1.879 1.508,3.617 2.012,5.211 l 20.785,60.64 -20.449,14.817 -50.496,-39.121 c -1.278,-1.036 -2.711,-2.254 -4.309,-3.645 -1.598,-1.391 -3.262,-2.832 -4.996,-4.324 1.133,1.926 2.242,3.773 3.324,5.535 1.082,1.766 2.004,3.355 2.766,4.766 l 29.273,54.488 z"
             style="fill:#000000;fill-opacity:1;fill-rule:nonzero;stroke:none"
             transform="scale(1.3333333)"
             clip-path="url(#clipPath55)"
             id="path58" />
        </g>
      </g>
    </g>
    <g
       id="g66"
       clip-path="url(#clipPath66)">
      <g
         clip-path="url(#clipPath63)"
         id="g65">
        <g
           clip-path="url(#clipPath62)"
           id="g64">
          <path
             d="m 1163.668,870.191 23.394,-11.804 19.172,38 c 5.965,11.82 12.723,15.82 20.289,12 4.254,-2.145 6.528,-5.098 6.821,-8.864 0.293,-3.765 -1.012,-8.531 -3.922,-14.3 l -19.391,-38.426 23.539,-11.875 19.676,38.992 c 6.629,13.141 8.418,24.332 5.375,33.578 -3.043,9.246 -10.094,16.656 -21.156,22.235 -11.438,5.773 -21.613,7.171 -30.524,4.195 -8.914,-2.973 -16.66,-10.984 -23.242,-24.027 z"
             style="fill:#000000;fill-opacity:1;fill-rule:nonzero;stroke:none"
             transform="scale(1.3333333)"
             clip-path="url(#clipPath61)"
             id="path64" />
        </g>
      </g>
    </g>
    <g
       id="g72"
       clip-path="url(#clipPath72)">
      <g
         clip-path="url(#clipPath69)"
         id="g71">
        <g
           clip-path="url(#clipPath68)"
           id="g70">
          <path
             d="m 1282.613,905.484 -38.293,-110.441 24.758,-8.582 13.477,38.863 c 2.39,-4.414 5.097,-8.156 8.129,-11.222 3.023,-3.067 6.988,-5.45 11.89,-7.153 3.801,-1.316 7.555,-1.887 11.254,-1.715 3.703,0.172 7.192,1.094 10.457,2.762 3.27,1.668 6.219,4.121 8.852,7.352 2.636,3.234 4.801,7.3 6.5,12.203 l 18.004,51.918 -24.907,8.636 -13.269,-38.261 c -1.145,-3.305 -2.344,-6.192 -3.594,-8.672 -1.254,-2.481 -2.609,-4.445 -4.066,-5.902 -1.457,-1.454 -3.09,-2.375 -4.907,-2.754 -1.812,-0.383 -3.867,-0.172 -6.168,0.625 -4.703,1.629 -7.57,4.586 -8.605,8.867 -1.039,4.285 -0.586,9.226 1.355,14.828 l 13.895,40.062 z"
             style="fill:#000000;fill-opacity:1;fill-rule:nonzero;stroke:none"
             transform="scale(1.3333333)"
             clip-path="url(#clipPath67)"
             id="path70" />
        </g>
      </g>
    </g>
    <g
       id="g78"
       clip-path="url(#clipPath78)">
      <g
         clip-path="url(#clipPath75)"
         id="g77">
        <g
           clip-path="url(#clipPath74)"
           id="g76">
          <path
             d="m 1404.246,846.867 c 5.305,-1.019 9.27,-3.644 11.91,-7.871 2.633,-4.23 3.364,-9.406 2.184,-15.543 -1.145,-5.926 -3.735,-10.281 -7.774,-13.058 -4.039,-2.782 -8.711,-3.661 -14.011,-2.641 -5.512,1.062 -9.532,3.723 -12.051,7.98 -2.524,4.262 -3.211,9.352 -2.07,15.278 1.16,6.031 3.761,10.437 7.8,13.215 4.039,2.781 8.711,3.66 14.012,2.64 m -48.012,-10.808 c -1.363,-7.071 -1.554,-13.532 -0.578,-19.379 0.977,-5.848 2.797,-10.942 5.469,-15.285 2.664,-4.34 6.051,-7.903 10.152,-10.688 4.098,-2.785 8.59,-4.648 13.477,-5.59 5.719,-1.097 10.719,-1.035 15,0.188 4.277,1.222 8.086,3.242 11.43,6.047 l -1.68,-8.735 25.734,-4.957 15.946,82.813 -25.735,4.953 -1.652,-8.578 c -2.375,3.91 -5.324,7.199 -8.852,9.875 -3.527,2.672 -7.945,4.523 -13.246,5.543 -4.785,0.922 -9.597,0.847 -14.437,-0.211 -4.84,-1.063 -9.332,-3.11 -13.473,-6.141 -4.141,-3.027 -7.773,-7.047 -10.894,-12.055 -3.122,-5.004 -5.34,-10.941 -6.661,-17.8"
             style="fill:#000000;fill-opacity:1;fill-rule:nonzero;stroke:none"
             transform="scale(1.3333333)"
             clip-path="url(#clipPath73)"
             id="path76" />
        </g>
      </g>
    </g>
    <g
       id="g84"
       clip-path="url(#clipPath84)">
      <g
         clip-path="url(#clipPath81)"
         id="g83">
        <g
           clip-path="url(#clipPath80)"
           id="g82">
          <path
             d="m 1459.855,773.082 26.364,-0.187 0.066,9.05 c 3.36,-3.621 7.098,-6.425 11.215,-8.418 4.113,-1.988 8.871,-3 14.27,-3.039 10.269,-0.074 17.98,4.266 23.125,13.016 3.675,-4.156 7.621,-7.414 11.839,-9.774 4.219,-2.359 9.61,-3.562 16.176,-3.609 8.996,-0.066 16.031,2.691 21.102,8.266 5.066,5.578 7.64,13.34 7.711,23.289 l 0.394,54.793 -26.203,0.187 -0.316,-43.992 c -0.09,-12.281 -4.157,-18.394 -12.203,-18.336 -4.551,0.035 -8.063,1.754 -10.524,5.16 -2.465,3.407 -3.672,8.707 -3.617,15.907 l 0.297,41.449 -26.203,0.191 -0.297,-40.976 c -0.051,-6.879 -1.016,-12.168 -2.895,-15.86 -1.879,-3.691 -5.094,-5.523 -9.644,-5.492 -4.45,0.031 -7.907,1.781 -10.367,5.238 -2.465,3.461 -3.668,8.789 -3.618,15.989 l 0.297,41.289 -26.363,0.191 z"
             style="fill:#000000;fill-opacity:1;fill-rule:nonzero;stroke:none"
             transform="scale(1.3333333)"
             clip-path="url(#clipPath79)"
             id="path82" />
        </g>
      </g>
    </g>
    <g
       id="g90"
       clip-path="url(#clipPath90)">
      <g
         clip-path="url(#clipPath87)"
         id="g89">
        <g
           clip-path="url(#clipPath86)"
           id="g88">
          <path
             d="m 1616.723,774.867 25.777,5.524 -1.895,8.851 c 4.067,-2.808 8.325,-4.738 12.774,-5.789 4.445,-1.051 9.312,-1.008 14.59,0.121 10.039,2.153 16.629,8.059 19.754,17.719 4.488,-3.262 9.047,-5.586 13.679,-6.977 4.625,-1.39 10.153,-1.398 16.571,-0.023 8.797,1.887 15.07,6.102 18.812,12.641 3.738,6.543 4.57,14.679 2.485,24.41 l -11.485,53.574 -25.625,-5.492 9.223,-43.016 c 2.574,-12.008 -0.074,-18.855 -7.942,-20.543 -4.453,-0.953 -8.25,-0.035 -11.39,2.754 -3.145,2.793 -5.469,7.711 -6.981,14.75 l -8.687,40.527 -25.621,-5.492 8.586,-40.062 c 1.441,-6.731 1.644,-12.098 0.613,-16.114 -1.035,-4.007 -3.781,-6.492 -8.231,-7.449 -4.347,-0.929 -8.101,0.028 -11.253,2.867 -3.157,2.844 -5.485,7.786 -6.997,14.825 l -8.652,40.375 -25.777,-5.524 z"
             style="fill:#000000;fill-opacity:1;fill-rule:nonzero;stroke:none"
             transform="scale(1.3333333)"
             clip-path="url(#clipPath85)"
             id="path88" />
        </g>
      </g>
    </g>
    <g
       id="g96"
       clip-path="url(#clipPath96)">
      <g
         clip-path="url(#clipPath93)"
         id="g95">
        <g
           clip-path="url(#clipPath92)"
           id="g94">
          <path
             d="m 1782.406,884.629 c 5.004,2.031 9.758,1.988 14.274,-0.121 4.511,-2.11 7.945,-6.059 10.293,-11.848 2.269,-5.594 2.465,-10.652 0.593,-15.183 -1.878,-4.536 -5.316,-7.813 -10.32,-9.844 -5.199,-2.113 -10.019,-2.067 -14.449,0.133 -4.438,2.203 -7.789,6.097 -10.059,11.687 -2.308,5.692 -2.527,10.801 -0.648,15.332 1.871,4.531 5.312,7.813 10.316,9.844 m -34.39,-35.207 c 2.707,-6.672 6.062,-12.195 10.066,-16.57 4.004,-4.375 8.305,-7.657 12.906,-9.844 4.602,-2.188 9.379,-3.336 14.336,-3.438 4.953,-0.105 9.738,0.782 14.352,2.653 5.394,2.187 9.554,4.965 12.476,8.32 2.922,3.355 5.02,7.121 6.297,11.297 l 3.348,-8.242 24.281,9.855 -31.711,78.141 -24.281,-9.852 3.285,-8.097 c -4.121,1.988 -8.387,3.14 -12.805,3.464 -4.414,0.321 -9.125,-0.535 -14.125,-2.566 -4.515,-1.832 -8.515,-4.512 -11.992,-8.035 -3.484,-3.528 -6.137,-7.688 -7.961,-12.485 -1.824,-4.796 -2.683,-10.144 -2.574,-16.043 0.106,-5.898 1.477,-12.085 4.102,-18.558"
             style="fill:#000000;fill-opacity:1;fill-rule:nonzero;stroke:none"
             transform="scale(1.3333333)"
             clip-path="url(#clipPath91)"
             id="path94" />
        </g>
      </g>
    </g>
    <g
       id="g102"
       clip-path="url(#clipPath102)">
      <g
         clip-path="url(#clipPath99)"
         id="g101">
        <g
           clip-path="url(#clipPath98)"
           id="g100">
          <path
             d="m 1872.176,928.023 c 4.695,2.668 9.414,3.247 14.168,1.747 4.75,-1.504 8.664,-4.969 11.75,-10.407 2.98,-5.246 3.836,-10.238 2.57,-14.976 -1.269,-4.739 -4.25,-8.438 -8.945,-11.106 -4.883,-2.769 -9.664,-3.355 -14.344,-1.754 -4.687,1.606 -8.516,5.028 -11.496,10.278 -3.035,5.34 -3.914,10.379 -2.649,15.113 1.266,4.738 4.25,8.441 8.946,11.105 m -29.5,-39.394 c 3.554,-6.262 7.601,-11.301 12.144,-15.113 4.539,-3.813 9.231,-6.504 14.082,-8.075 4.844,-1.57 9.735,-2.082 14.66,-1.539 4.926,0.547 9.551,2.047 13.879,4.504 5.063,2.875 8.825,6.168 11.286,9.879 2.461,3.711 4.05,7.715 4.773,12.02 l 20.465,-36.043 22.789,12.937 -57.715,101.649 -22.789,-12.942 4.312,-7.594 c -4.343,1.43 -8.722,2.016 -13.144,1.758 -4.418,-0.258 -8.977,-1.718 -13.672,-4.382 -4.238,-2.407 -7.851,-5.586 -10.84,-9.536 -2.992,-3.953 -5.082,-8.425 -6.261,-13.418 -1.184,-4.992 -1.34,-10.406 -0.461,-16.242 0.875,-5.832 3.043,-11.789 6.492,-17.863"
             style="fill:#000000;fill-opacity:1;fill-rule:nonzero;stroke:none"
             transform="scale(1.3333333)"
             clip-path="url(#clipPath97)"
             id="path100" />
        </g>
      </g>
    </g>
    <g
       id="g108"
       clip-path="url(#clipPath108)">
      <g
         clip-path="url(#clipPath105)"
         id="g107">
        <g
           clip-path="url(#clipPath104)"
           id="g106">
          <path
             d="m 1911.039,977.938 47.965,-69.364 21.551,14.906 -47.965,69.36 z m 58.391,-89.188 c 2.289,-3.309 5.398,-5.34 9.332,-6.094 3.933,-0.758 7.906,0.25 11.91,3.02 2.004,1.386 3.566,2.984 4.699,4.797 1.125,1.808 1.867,3.672 2.219,5.586 0.344,1.914 0.277,3.832 -0.211,5.746 -0.488,1.918 -1.305,3.703 -2.445,5.355 -2.411,3.485 -5.582,5.602 -9.516,6.36 -3.934,0.753 -7.906,-0.254 -11.91,-3.024 -4.094,-2.832 -6.41,-6.269 -6.961,-10.316 -0.547,-4.051 0.414,-7.856 2.883,-11.43"
             style="fill:#000000;fill-opacity:1;fill-rule:nonzero;stroke:none"
             transform="scale(1.3333333)"
             clip-path="url(#clipPath103)"
             id="path106" />
        </g>
      </g>
    </g>
    <path
       id="path113"
       d="m 1500,1025.965 c -64.91,0 -127.934,12.723 -187.289,37.828 -57.293,24.234 -108.746,58.914 -152.914,103.086 -44.172,44.168 -78.848,95.609 -103.082,152.914 -25.11,59.352 -37.832,122.375 -37.832,187.285 0,64.914 12.722,127.938 37.832,187.281 24.234,57.305 58.914,108.754 103.086,152.926 44.168,44.156 95.617,78.848 152.91,103.082 59.355,25.11 122.379,37.828 187.289,37.828 64.91,0 127.934,-12.718 187.289,-37.828 57.293,-24.234 108.746,-58.914 152.914,-103.082 44.172,-44.168 78.848,-95.621 103.082,-152.926 25.113,-59.343 37.828,-122.367 37.828,-187.281 0,-64.918 -12.718,-127.941 -37.828,-187.285 -24.234,-57.293 -58.91,-108.746 -103.082,-152.914 -44.168,-44.172 -95.621,-78.852 -152.914,-103.086 -59.355,-25.105 -122.379,-37.828 -187.289,-37.828 z m 0,46.816 c 58.691,0 115.488,11.485 169.043,34.129 51.734,21.891 98.141,53.16 138.051,93.082 39.914,39.906 71.191,86.313 93.082,138.043 22.644,53.559 34.125,110.36 34.125,169.043 0,58.68 -11.485,115.492 -34.125,169.043 -21.895,51.738 -53.168,98.133 -93.086,138.055 -39.906,39.914 -86.313,71.187 -138.043,93.066 -53.559,22.653 -110.356,34.129 -169.047,34.129 -58.691,0 -115.488,-11.476 -169.047,-34.129 -51.73,-21.879 -98.137,-53.152 -138.043,-93.07 -39.918,-39.922 -71.195,-86.313 -93.082,-138.047 -22.648,-53.559 -34.129,-110.367 -34.129,-169.047 0,-58.683 11.485,-115.484 34.129,-169.039 21.891,-51.734 53.164,-98.141 93.082,-138.051 39.906,-39.918 86.313,-71.191 138.043,-93.078 53.563,-22.648 110.359,-34.129 169.047,-34.129 z"
       transform="scale(1.3333333)"
       style="fill:url(#linearGradient113);stroke:none" />
  </g>
</svg>
